<?xml version="1.0" encoding="UTF-8" standalone="no"?>
<!DOCTYPE svg PUBLIC "-//W3C//DTD SVG 1.1//EN"
 "http://www.w3.org/Graphics/SVG/1.1/DTD/svg11.dtd">
<!-- Generated by graphviz version 2.47.0 (20210316.0004)
 -->
<!-- Title: dependencies Pages: 1 -->
<svg width="504pt" height="211pt"
 viewBox="0.00 0.00 504.00 211.00" xmlns="http://www.w3.org/2000/svg" xmlns:xlink="http://www.w3.org/1999/xlink">
<g id="graph0" class="graph" transform="scale(1 1) rotate(0) translate(4 207)">
<title>dependencies</title>
<polygon fill="white" stroke="transparent" points="-4,4 -4,-207 500,-207 500,4 -4,4"/>
<text text-anchor="start" x="227.01" y="-42.4" font-family="sans-serif" font-weight="bold" font-size="14.00">Legend</text>
<polygon fill="#ffffb3" stroke="transparent" points="14,-10 14,-30 34,-30 34,-10 14,-10"/>
<text text-anchor="start" x="37.63" y="-15.4" font-family="sans-serif" font-size="14.00"> &#160;Declarations</text>
<polygon fill="#8dd3c7" stroke="transparent" points="127,-10 127,-30 147,-30 147,-10 127,-10"/>
<text text-anchor="start" x="150.73" y="-15.4" font-family="sans-serif" font-size="14.00"> &#160;Module</text>
<polygon fill="#80b1d3" stroke="transparent" points="213,-10 213,-30 233,-30 233,-10 213,-10"/>
<text text-anchor="start" x="236.78" y="-15.4" font-family="sans-serif" font-size="14.00"> &#160;Bootstrap</text>
<polygon fill="#fdb462" stroke="transparent" points="310,-10 310,-30 330,-30 330,-10 310,-10"/>
<text text-anchor="start" x="333.67" y="-15.4" font-family="sans-serif" font-size="14.00"> &#160;Providers</text>
<polygon fill="#fb8072" stroke="transparent" points="406,-10 406,-30 426,-30 426,-10 406,-10"/>
<text text-anchor="start" x="429.73" y="-15.4" font-family="sans-serif" font-size="14.00"> &#160;Exports</text>
<g id="clust1" class="cluster">
<title>cluster_QrcodePageModule</title>
<polygon fill="none" stroke="black" stroke-dasharray="1,5" points="91,-70 91,-195 405,-195 405,-70 91,-70"/>
</g>
<g id="clust2" class="cluster">
<title>cluster_QrcodePageModule_declarations</title>
<polygon fill="none" stroke="black" points="297,-78 297,-130 397,-130 397,-78 297,-78"/>
</g>
<g id="clust4" class="cluster">
<title>cluster_QrcodePageModule_imports</title>
<polygon fill="none" stroke="black" points="99,-78 99,-130 289,-130 289,-78 99,-78"/>
</g>
<!-- QrcodePage -->
<g id="node1" class="node">
<title>QrcodePage</title>
<polygon fill="#ffffb3" stroke="black" points="389.41,-122 304.59,-122 304.59,-86 389.41,-86 389.41,-122"/>
<text text-anchor="middle" x="347" y="-99.8" font-family="Times,serif" font-size="14.00">QrcodePage</text>
</g>
<!-- QrcodePageModule -->
<g id="node2" class="node">
<title>QrcodePageModule</title>
<polygon fill="#8dd3c7" stroke="black" points="326.96,-187 323.96,-191 302.96,-191 299.96,-187 199.04,-187 199.04,-151 326.96,-151 326.96,-187"/>
<text text-anchor="middle" x="263" y="-164.8" font-family="Times,serif" font-size="14.00">QrcodePageModule</text>
</g>
<!-- QrcodePage&#45;&gt;QrcodePageModule -->
<g id="edge1" class="edge">
<title>QrcodePage&#45;&gt;QrcodePageModule</title>
<path fill="none" stroke="black" d="M315.89,-122.11C315.89,-122.11 315.89,-140.99 315.89,-140.99"/>
<polygon fill="black" stroke="black" points="312.39,-140.99 315.89,-150.99 319.39,-140.99 312.39,-140.99"/>
</g>
<!-- QrcodePageRoutingModule -->
<g id="node3" class="node">
<title>QrcodePageRoutingModule</title>
<polygon fill="#8dd3c7" stroke="black" points="280.58,-122 277.58,-126 256.58,-126 253.58,-122 107.42,-122 107.42,-86 280.58,-86 280.58,-122"/>
<text text-anchor="middle" x="194" y="-99.8" font-family="Times,serif" font-size="14.00">QrcodePageRoutingModule</text>
</g>
<!-- QrcodePageRoutingModule&#45;&gt;QrcodePageModule -->
<g id="edge2" class="edge">
<title>QrcodePageRoutingModule&#45;&gt;QrcodePageModule</title>
<path fill="none" stroke="black" d="M239.78,-122.11C239.78,-122.11 239.78,-140.99 239.78,-140.99"/>
<polygon fill="black" stroke="black" points="236.28,-140.99 239.78,-150.99 243.28,-140.99 236.28,-140.99"/>
</g>
</g>
</svg>
