<?xml version="1.0" encoding="UTF-8" standalone="no"?>
<!DOCTYPE svg PUBLIC "-//W3C//DTD SVG 1.1//EN"
 "http://www.w3.org/Graphics/SVG/1.1/DTD/svg11.dtd">
<!-- Generated by graphviz version 2.47.0 (20210316.0004)
 -->
<!-- Title: dependencies Pages: 1 -->
<svg width="504pt" height="211pt"
 viewBox="0.00 0.00 504.00 211.00" xmlns="http://www.w3.org/2000/svg" xmlns:xlink="http://www.w3.org/1999/xlink">
<g id="graph0" class="graph" transform="scale(1 1) rotate(0) translate(4 207)">
<title>dependencies</title>
<polygon fill="white" stroke="transparent" points="-4,4 -4,-207 500,-207 500,4 -4,4"/>
<text text-anchor="start" x="227.01" y="-42.4" font-family="sans-serif" font-weight="bold" font-size="14.00">Legend</text>
<polygon fill="#ffffb3" stroke="transparent" points="14,-10 14,-30 34,-30 34,-10 14,-10"/>
<text text-anchor="start" x="37.63" y="-15.4" font-family="sans-serif" font-size="14.00"> &#160;Declarations</text>
<polygon fill="#8dd3c7" stroke="transparent" points="127,-10 127,-30 147,-30 147,-10 127,-10"/>
<text text-anchor="start" x="150.73" y="-15.4" font-family="sans-serif" font-size="14.00"> &#160;Module</text>
<polygon fill="#80b1d3" stroke="transparent" points="213,-10 213,-30 233,-30 233,-10 213,-10"/>
<text text-anchor="start" x="236.78" y="-15.4" font-family="sans-serif" font-size="14.00"> &#160;Bootstrap</text>
<polygon fill="#fdb462" stroke="transparent" points="310,-10 310,-30 330,-30 330,-10 310,-10"/>
<text text-anchor="start" x="333.67" y="-15.4" font-family="sans-serif" font-size="14.00"> &#160;Providers</text>
<polygon fill="#fb8072" stroke="transparent" points="406,-10 406,-30 426,-30 426,-10 406,-10"/>
<text text-anchor="start" x="429.73" y="-15.4" font-family="sans-serif" font-size="14.00"> &#160;Exports</text>
<g id="clust1" class="cluster">
<title>cluster_Question2PageModule</title>
<polygon fill="none" stroke="black" stroke-dasharray="1,5" points="75,-70 75,-195 421,-195 421,-70 75,-70"/>
</g>
<g id="clust2" class="cluster">
<title>cluster_Question2PageModule_declarations</title>
<polygon fill="none" stroke="black" points="297,-78 297,-130 413,-130 413,-78 297,-78"/>
</g>
<g id="clust4" class="cluster">
<title>cluster_Question2PageModule_imports</title>
<polygon fill="none" stroke="black" points="83,-78 83,-130 289,-130 289,-78 83,-78"/>
</g>
<!-- Question2Page -->
<g id="node1" class="node">
<title>Question2Page</title>
<polygon fill="#ffffb3" stroke="black" points="405.26,-122 304.74,-122 304.74,-86 405.26,-86 405.26,-122"/>
<text text-anchor="middle" x="355" y="-99.8" font-family="Times,serif" font-size="14.00">Question2Page</text>
</g>
<!-- Question2PageModule -->
<g id="node2" class="node">
<title>Question2PageModule</title>
<polygon fill="#8dd3c7" stroke="black" points="335.31,-187 332.31,-191 311.31,-191 308.31,-187 190.69,-187 190.69,-151 335.31,-151 335.31,-187"/>
<text text-anchor="middle" x="263" y="-164.8" font-family="Times,serif" font-size="14.00">Question2PageModule</text>
</g>
<!-- Question2Page&#45;&gt;Question2PageModule -->
<g id="edge1" class="edge">
<title>Question2Page&#45;&gt;Question2PageModule</title>
<path fill="none" stroke="black" d="M319.89,-122.11C319.89,-122.11 319.89,-140.99 319.89,-140.99"/>
<polygon fill="black" stroke="black" points="316.39,-140.99 319.89,-150.99 323.39,-140.99 316.39,-140.99"/>
</g>
<!-- Question2PageRoutingModule -->
<g id="node3" class="node">
<title>Question2PageRoutingModule</title>
<polygon fill="#8dd3c7" stroke="black" points="280.93,-122 277.93,-126 256.93,-126 253.93,-122 91.07,-122 91.07,-86 280.93,-86 280.93,-122"/>
<text text-anchor="middle" x="186" y="-99.8" font-family="Times,serif" font-size="14.00">Question2PageRoutingModule</text>
</g>
<!-- Question2PageRoutingModule&#45;&gt;Question2PageModule -->
<g id="edge2" class="edge">
<title>Question2PageRoutingModule&#45;&gt;Question2PageModule</title>
<path fill="none" stroke="black" d="M235.78,-122.11C235.78,-122.11 235.78,-140.99 235.78,-140.99"/>
<polygon fill="black" stroke="black" points="232.28,-140.99 235.78,-150.99 239.28,-140.99 232.28,-140.99"/>
</g>
</g>
</svg>
