<?xml version="1.0" encoding="UTF-8" standalone="no"?>
<!DOCTYPE svg PUBLIC "-//W3C//DTD SVG 1.1//EN"
 "http://www.w3.org/Graphics/SVG/1.1/DTD/svg11.dtd">
<!-- Generated by graphviz version 2.47.0 (20210316.0004)
 -->
<!-- Title: dependencies Pages: 1 -->
<svg width="2684pt" height="284pt"
 viewBox="0.00 0.00 2684.00 284.00" xmlns="http://www.w3.org/2000/svg" xmlns:xlink="http://www.w3.org/1999/xlink">
<g id="graph0" class="graph" transform="scale(1 1) rotate(0) translate(4 280)">
<title>dependencies</title>
<polygon fill="white" stroke="transparent" points="-4,4 -4,-280 2680,-280 2680,4 -4,4"/>
<text text-anchor="start" x="1317.01" y="-42.4" font-family="sans-serif" font-weight="bold" font-size="14.00">Legend</text>
<polygon fill="#ffffb3" stroke="transparent" points="1104,-10 1104,-30 1124,-30 1124,-10 1104,-10"/>
<text text-anchor="start" x="1127.63" y="-15.4" font-family="sans-serif" font-size="14.00"> &#160;Declarations</text>
<polygon fill="#8dd3c7" stroke="transparent" points="1217,-10 1217,-30 1237,-30 1237,-10 1217,-10"/>
<text text-anchor="start" x="1240.73" y="-15.4" font-family="sans-serif" font-size="14.00"> &#160;Module</text>
<polygon fill="#80b1d3" stroke="transparent" points="1303,-10 1303,-30 1323,-30 1323,-10 1303,-10"/>
<text text-anchor="start" x="1326.78" y="-15.4" font-family="sans-serif" font-size="14.00"> &#160;Bootstrap</text>
<polygon fill="#fdb462" stroke="transparent" points="1400,-10 1400,-30 1420,-30 1420,-10 1400,-10"/>
<text text-anchor="start" x="1423.67" y="-15.4" font-family="sans-serif" font-size="14.00"> &#160;Providers</text>
<polygon fill="#fb8072" stroke="transparent" points="1496,-10 1496,-30 1516,-30 1516,-10 1496,-10"/>
<text text-anchor="start" x="1519.73" y="-15.4" font-family="sans-serif" font-size="14.00"> &#160;Exports</text>
<g id="clust1" class="cluster">
<title>cluster_AppModule</title>
<polygon fill="none" stroke="black" stroke-dasharray="1,5" points="8,-70 8,-268 298,-268 298,-70 8,-70"/>
</g>
<g id="clust2" class="cluster">
<title>cluster_AppModule_declarations</title>
<polygon fill="none" stroke="black" points="168,-78 168,-130 290,-130 290,-78 168,-78"/>
</g>
<g id="clust4" class="cluster">
<title>cluster_AppModule_imports</title>
<polygon fill="none" stroke="black" points="16,-78 16,-130 160,-130 160,-78 16,-78"/>
</g>
<g id="clust6" class="cluster">
<title>cluster_AppModule_bootstrap</title>
<polygon fill="none" stroke="black" points="96,-208 96,-260 220,-260 220,-208 96,-208"/>
</g>
<g id="clust14" class="cluster">
<title>cluster_HomePageModule</title>
<polygon fill="none" stroke="black" stroke-dasharray="1,5" points="306,-70 306,-195 606,-195 606,-70 306,-70"/>
</g>
<g id="clust15" class="cluster">
<title>cluster_HomePageModule_declarations</title>
<polygon fill="none" stroke="black" points="504,-78 504,-130 598,-130 598,-78 504,-78"/>
</g>
<g id="clust17" class="cluster">
<title>cluster_HomePageModule_imports</title>
<polygon fill="none" stroke="black" points="314,-78 314,-130 496,-130 496,-78 314,-78"/>
</g>
<g id="clust27" class="cluster">
<title>cluster_LastquestionPageModule</title>
<polygon fill="none" stroke="black" stroke-dasharray="1,5" points="614,-70 614,-195 988,-195 988,-70 614,-70"/>
</g>
<g id="clust28" class="cluster">
<title>cluster_LastquestionPageModule_declarations</title>
<polygon fill="none" stroke="black" points="850,-78 850,-130 980,-130 980,-78 850,-78"/>
</g>
<g id="clust30" class="cluster">
<title>cluster_LastquestionPageModule_imports</title>
<polygon fill="none" stroke="black" points="622,-78 622,-130 842,-130 842,-78 622,-78"/>
</g>
<g id="clust40" class="cluster">
<title>cluster_QrcodePageModule</title>
<polygon fill="none" stroke="black" stroke-dasharray="1,5" points="996,-70 996,-195 1310,-195 1310,-70 996,-70"/>
</g>
<g id="clust41" class="cluster">
<title>cluster_QrcodePageModule_declarations</title>
<polygon fill="none" stroke="black" points="1202,-78 1202,-130 1302,-130 1302,-78 1202,-78"/>
</g>
<g id="clust43" class="cluster">
<title>cluster_QrcodePageModule_imports</title>
<polygon fill="none" stroke="black" points="1004,-78 1004,-130 1194,-130 1194,-78 1004,-78"/>
</g>
<g id="clust53" class="cluster">
<title>cluster_Question1PageModule</title>
<polygon fill="none" stroke="black" stroke-dasharray="1,5" points="1318,-70 1318,-195 1664,-195 1664,-70 1318,-70"/>
</g>
<g id="clust54" class="cluster">
<title>cluster_Question1PageModule_declarations</title>
<polygon fill="none" stroke="black" points="1540,-78 1540,-130 1656,-130 1656,-78 1540,-78"/>
</g>
<g id="clust56" class="cluster">
<title>cluster_Question1PageModule_imports</title>
<polygon fill="none" stroke="black" points="1326,-78 1326,-130 1532,-130 1532,-78 1326,-78"/>
</g>
<g id="clust66" class="cluster">
<title>cluster_Question2PageModule</title>
<polygon fill="none" stroke="black" stroke-dasharray="1,5" points="1672,-70 1672,-195 2018,-195 2018,-70 1672,-70"/>
</g>
<g id="clust67" class="cluster">
<title>cluster_Question2PageModule_declarations</title>
<polygon fill="none" stroke="black" points="1894,-78 1894,-130 2010,-130 2010,-78 1894,-78"/>
</g>
<g id="clust69" class="cluster">
<title>cluster_Question2PageModule_imports</title>
<polygon fill="none" stroke="black" points="1680,-78 1680,-130 1886,-130 1886,-78 1680,-78"/>
</g>
<g id="clust79" class="cluster">
<title>cluster_SetupPageModule</title>
<polygon fill="none" stroke="black" stroke-dasharray="1,5" points="2026,-70 2026,-195 2322,-195 2322,-70 2026,-70"/>
</g>
<g id="clust80" class="cluster">
<title>cluster_SetupPageModule_declarations</title>
<polygon fill="none" stroke="black" points="2222,-78 2222,-130 2314,-130 2314,-78 2222,-78"/>
</g>
<g id="clust82" class="cluster">
<title>cluster_SetupPageModule_imports</title>
<polygon fill="none" stroke="black" points="2034,-78 2034,-130 2214,-130 2214,-78 2034,-78"/>
</g>
<g id="clust92" class="cluster">
<title>cluster_WelcomePageModule</title>
<polygon fill="none" stroke="black" stroke-dasharray="1,5" points="2330,-70 2330,-195 2668,-195 2668,-70 2330,-70"/>
</g>
<g id="clust93" class="cluster">
<title>cluster_WelcomePageModule_declarations</title>
<polygon fill="none" stroke="black" points="2548,-78 2548,-130 2660,-130 2660,-78 2548,-78"/>
</g>
<g id="clust95" class="cluster">
<title>cluster_WelcomePageModule_imports</title>
<polygon fill="none" stroke="black" points="2338,-78 2338,-130 2540,-130 2540,-78 2338,-78"/>
</g>
<!-- AppComponent -->
<g id="node1" class="node">
<title>AppComponent</title>
<polygon fill="#ffffb3" stroke="black" points="281.94,-122 176.06,-122 176.06,-86 281.94,-86 281.94,-122"/>
<text text-anchor="middle" x="229" y="-99.8" font-family="Times,serif" font-size="14.00">AppComponent</text>
</g>
<!-- AppModule -->
<g id="node2" class="node">
<title>AppModule</title>
<polygon fill="#8dd3c7" stroke="black" points="199.66,-187 196.66,-191 175.66,-191 172.66,-187 116.34,-187 116.34,-151 199.66,-151 199.66,-187"/>
<text text-anchor="middle" x="158" y="-164.8" font-family="Times,serif" font-size="14.00">AppModule</text>
</g>
<!-- AppComponent&#45;&gt;AppModule -->
<g id="edge1" class="edge">
<title>AppComponent&#45;&gt;AppModule</title>
<path fill="none" stroke="black" d="M188.05,-122.11C188.05,-122.11 188.05,-140.99 188.05,-140.99"/>
<polygon fill="black" stroke="black" points="184.55,-140.99 188.05,-150.99 191.55,-140.99 184.55,-140.99"/>
</g>
<!-- AppComponent  -->
<g id="node4" class="node">
<title>AppComponent </title>
<polygon fill="#80b1d3" stroke="black" points="212.44,-252 103.56,-252 103.56,-216 212.44,-216 212.44,-252"/>
<text text-anchor="middle" x="158" y="-229.8" font-family="Times,serif" font-size="14.00">AppComponent </text>
</g>
<!-- AppModule&#45;&gt;AppComponent  -->
<g id="edge3" class="edge">
<title>AppModule&#45;&gt;AppComponent </title>
<path fill="none" stroke="black" stroke-dasharray="1,5" d="M158,-187.11C158,-187.11 158,-205.99 158,-205.99"/>
<polygon fill="black" stroke="black" points="154.5,-205.99 158,-215.99 161.5,-205.99 154.5,-205.99"/>
</g>
<!-- AppRoutingModule -->
<g id="node3" class="node">
<title>AppRoutingModule</title>
<polygon fill="#8dd3c7" stroke="black" points="152.27,-122 149.27,-126 128.27,-126 125.27,-122 23.73,-122 23.73,-86 152.27,-86 152.27,-122"/>
<text text-anchor="middle" x="88" y="-99.8" font-family="Times,serif" font-size="14.00">AppRoutingModule</text>
</g>
<!-- AppRoutingModule&#45;&gt;AppModule -->
<g id="edge2" class="edge">
<title>AppRoutingModule&#45;&gt;AppModule</title>
<path fill="none" stroke="black" d="M134.28,-122.11C134.28,-122.11 134.28,-140.99 134.28,-140.99"/>
<polygon fill="black" stroke="black" points="130.78,-140.99 134.28,-150.99 137.78,-140.99 130.78,-140.99"/>
</g>
<!-- HomePage -->
<g id="node5" class="node">
<title>HomePage</title>
<polygon fill="#ffffb3" stroke="black" points="589.92,-122 512.08,-122 512.08,-86 589.92,-86 589.92,-122"/>
<text text-anchor="middle" x="551" y="-99.8" font-family="Times,serif" font-size="14.00">HomePage</text>
</g>
<!-- HomePageModule -->
<g id="node6" class="node">
<title>HomePageModule</title>
<polygon fill="#8dd3c7" stroke="black" points="531.47,-187 528.47,-191 507.47,-191 504.47,-187 410.53,-187 410.53,-151 531.47,-151 531.47,-187"/>
<text text-anchor="middle" x="471" y="-164.8" font-family="Times,serif" font-size="14.00">HomePageModule</text>
</g>
<!-- HomePage&#45;&gt;HomePageModule -->
<g id="edge4" class="edge">
<title>HomePage&#45;&gt;HomePageModule</title>
<path fill="none" stroke="black" d="M521.89,-122.11C521.89,-122.11 521.89,-140.99 521.89,-140.99"/>
<polygon fill="black" stroke="black" points="518.39,-140.99 521.89,-150.99 525.39,-140.99 518.39,-140.99"/>
</g>
<!-- HomePageRoutingModule -->
<g id="node7" class="node">
<title>HomePageRoutingModule</title>
<polygon fill="#8dd3c7" stroke="black" points="488.09,-122 485.09,-126 464.09,-126 461.09,-122 321.91,-122 321.91,-86 488.09,-86 488.09,-122"/>
<text text-anchor="middle" x="405" y="-99.8" font-family="Times,serif" font-size="14.00">HomePageRoutingModule</text>
</g>
<!-- HomePageRoutingModule&#45;&gt;HomePageModule -->
<g id="edge5" class="edge">
<title>HomePageRoutingModule&#45;&gt;HomePageModule</title>
<path fill="none" stroke="black" d="M449.28,-122.11C449.28,-122.11 449.28,-140.99 449.28,-140.99"/>
<polygon fill="black" stroke="black" points="445.78,-140.99 449.28,-150.99 452.78,-140.99 445.78,-140.99"/>
</g>
<!-- LastquestionPage -->
<g id="node8" class="node">
<title>LastquestionPage</title>
<polygon fill="#ffffb3" stroke="black" points="972.25,-122 857.75,-122 857.75,-86 972.25,-86 972.25,-122"/>
<text text-anchor="middle" x="915" y="-99.8" font-family="Times,serif" font-size="14.00">LastquestionPage</text>
</g>
<!-- LastquestionPageModule -->
<g id="node9" class="node">
<title>LastquestionPageModule</title>
<polygon fill="#8dd3c7" stroke="black" points="895.3,-187 892.3,-191 871.3,-191 868.3,-187 736.7,-187 736.7,-151 895.3,-151 895.3,-187"/>
<text text-anchor="middle" x="816" y="-164.8" font-family="Times,serif" font-size="14.00">LastquestionPageModule</text>
</g>
<!-- LastquestionPage&#45;&gt;LastquestionPageModule -->
<g id="edge6" class="edge">
<title>LastquestionPage&#45;&gt;LastquestionPageModule</title>
<path fill="none" stroke="black" d="M876.39,-122.11C876.39,-122.11 876.39,-140.99 876.39,-140.99"/>
<polygon fill="black" stroke="black" points="872.89,-140.99 876.39,-150.99 879.89,-140.99 872.89,-140.99"/>
</g>
<!-- LastquestionPageRoutingModule -->
<g id="node10" class="node">
<title>LastquestionPageRoutingModule</title>
<polygon fill="#8dd3c7" stroke="black" points="833.92,-122 830.92,-126 809.92,-126 806.92,-122 630.08,-122 630.08,-86 833.92,-86 833.92,-122"/>
<text text-anchor="middle" x="732" y="-99.8" font-family="Times,serif" font-size="14.00">LastquestionPageRoutingModule</text>
</g>
<!-- LastquestionPageRoutingModule&#45;&gt;LastquestionPageModule -->
<g id="edge7" class="edge">
<title>LastquestionPageRoutingModule&#45;&gt;LastquestionPageModule</title>
<path fill="none" stroke="black" d="M785.28,-122.11C785.28,-122.11 785.28,-140.99 785.28,-140.99"/>
<polygon fill="black" stroke="black" points="781.78,-140.99 785.28,-150.99 788.78,-140.99 781.78,-140.99"/>
</g>
<!-- QrcodePage -->
<g id="node11" class="node">
<title>QrcodePage</title>
<polygon fill="#ffffb3" stroke="black" points="1294.41,-122 1209.59,-122 1209.59,-86 1294.41,-86 1294.41,-122"/>
<text text-anchor="middle" x="1252" y="-99.8" font-family="Times,serif" font-size="14.00">QrcodePage</text>
</g>
<!-- QrcodePageModule -->
<g id="node12" class="node">
<title>QrcodePageModule</title>
<polygon fill="#8dd3c7" stroke="black" points="1231.96,-187 1228.96,-191 1207.96,-191 1204.96,-187 1104.04,-187 1104.04,-151 1231.96,-151 1231.96,-187"/>
<text text-anchor="middle" x="1168" y="-164.8" font-family="Times,serif" font-size="14.00">QrcodePageModule</text>
</g>
<!-- QrcodePage&#45;&gt;QrcodePageModule -->
<g id="edge8" class="edge">
<title>QrcodePage&#45;&gt;QrcodePageModule</title>
<path fill="none" stroke="black" d="M1220.89,-122.11C1220.89,-122.11 1220.89,-140.99 1220.89,-140.99"/>
<polygon fill="black" stroke="black" points="1217.39,-140.99 1220.89,-150.99 1224.39,-140.99 1217.39,-140.99"/>
</g>
<!-- QrcodePageRoutingModule -->
<g id="node13" class="node">
<title>QrcodePageRoutingModule</title>
<polygon fill="#8dd3c7" stroke="black" points="1185.58,-122 1182.58,-126 1161.58,-126 1158.58,-122 1012.42,-122 1012.42,-86 1185.58,-86 1185.58,-122"/>
<text text-anchor="middle" x="1099" y="-99.8" font-family="Times,serif" font-size="14.00">QrcodePageRoutingModule</text>
</g>
<!-- QrcodePageRoutingModule&#45;&gt;QrcodePageModule -->
<g id="edge9" class="edge">
<title>QrcodePageRoutingModule&#45;&gt;QrcodePageModule</title>
<path fill="none" stroke="black" d="M1144.78,-122.11C1144.78,-122.11 1144.78,-140.99 1144.78,-140.99"/>
<polygon fill="black" stroke="black" points="1141.28,-140.99 1144.78,-150.99 1148.28,-140.99 1141.28,-140.99"/>
</g>
<!-- Question1Page -->
<g id="node14" class="node">
<title>Question1Page</title>
<polygon fill="#ffffb3" stroke="black" points="1648.26,-122 1547.74,-122 1547.74,-86 1648.26,-86 1648.26,-122"/>
<text text-anchor="middle" x="1598" y="-99.8" font-family="Times,serif" font-size="14.00">Question1Page</text>
</g>
<!-- Question1PageModule -->
<g id="node15" class="node">
<title>Question1PageModule</title>
<polygon fill="#8dd3c7" stroke="black" points="1578.31,-187 1575.31,-191 1554.31,-191 1551.31,-187 1433.69,-187 1433.69,-151 1578.31,-151 1578.31,-187"/>
<text text-anchor="middle" x="1506" y="-164.8" font-family="Times,serif" font-size="14.00">Question1PageModule</text>
</g>
<!-- Question1Page&#45;&gt;Question1PageModule -->
<g id="edge10" class="edge">
<title>Question1Page&#45;&gt;Question1PageModule</title>
<path fill="none" stroke="black" d="M1562.89,-122.11C1562.89,-122.11 1562.89,-140.99 1562.89,-140.99"/>
<polygon fill="black" stroke="black" points="1559.39,-140.99 1562.89,-150.99 1566.39,-140.99 1559.39,-140.99"/>
</g>
<!-- Question1PageRoutingModule -->
<g id="node16" class="node">
<title>Question1PageRoutingModule</title>
<polygon fill="#8dd3c7" stroke="black" points="1523.93,-122 1520.93,-126 1499.93,-126 1496.93,-122 1334.07,-122 1334.07,-86 1523.93,-86 1523.93,-122"/>
<text text-anchor="middle" x="1429" y="-99.8" font-family="Times,serif" font-size="14.00">Question1PageRoutingModule</text>
</g>
<!-- Question1PageRoutingModule&#45;&gt;Question1PageModule -->
<g id="edge11" class="edge">
<title>Question1PageRoutingModule&#45;&gt;Question1PageModule</title>
<path fill="none" stroke="black" d="M1478.78,-122.11C1478.78,-122.11 1478.78,-140.99 1478.78,-140.99"/>
<polygon fill="black" stroke="black" points="1475.28,-140.99 1478.78,-150.99 1482.28,-140.99 1475.28,-140.99"/>
</g>
<!-- Question2Page -->
<g id="node17" class="node">
<title>Question2Page</title>
<polygon fill="#ffffb3" stroke="black" points="2002.26,-122 1901.74,-122 1901.74,-86 2002.26,-86 2002.26,-122"/>
<text text-anchor="middle" x="1952" y="-99.8" font-family="Times,serif" font-size="14.00">Question2Page</text>
</g>
<!-- Question2PageModule -->
<g id="node18" class="node">
<title>Question2PageModule</title>
<polygon fill="#8dd3c7" stroke="black" points="1932.31,-187 1929.31,-191 1908.31,-191 1905.31,-187 1787.69,-187 1787.69,-151 1932.31,-151 1932.31,-187"/>
<text text-anchor="middle" x="1860" y="-164.8" font-family="Times,serif" font-size="14.00">Question2PageModule</text>
</g>
<!-- Question2Page&#45;&gt;Question2PageModule -->
<g id="edge12" class="edge">
<title>Question2Page&#45;&gt;Question2PageModule</title>
<path fill="none" stroke="black" d="M1916.89,-122.11C1916.89,-122.11 1916.89,-140.99 1916.89,-140.99"/>
<polygon fill="black" stroke="black" points="1913.39,-140.99 1916.89,-150.99 1920.39,-140.99 1913.39,-140.99"/>
</g>
<!-- Question2PageRoutingModule -->
<g id="node19" class="node">
<title>Question2PageRoutingModule</title>
<polygon fill="#8dd3c7" stroke="black" points="1877.93,-122 1874.93,-126 1853.93,-126 1850.93,-122 1688.07,-122 1688.07,-86 1877.93,-86 1877.93,-122"/>
<text text-anchor="middle" x="1783" y="-99.8" font-family="Times,serif" font-size="14.00">Question2PageRoutingModule</text>
</g>
<!-- Question2PageRoutingModule&#45;&gt;Question2PageModule -->
<g id="edge13" class="edge">
<title>Question2PageRoutingModule&#45;&gt;Question2PageModule</title>
<path fill="none" stroke="black" d="M1832.78,-122.11C1832.78,-122.11 1832.78,-140.99 1832.78,-140.99"/>
<polygon fill="black" stroke="black" points="1829.28,-140.99 1832.78,-150.99 1836.28,-140.99 1829.28,-140.99"/>
</g>
<!-- SetupPage -->
<g id="node20" class="node">
<title>SetupPage</title>
<polygon fill="#ffffb3" stroke="black" points="2305.6,-122 2230.4,-122 2230.4,-86 2305.6,-86 2305.6,-122"/>
<text text-anchor="middle" x="2268" y="-99.8" font-family="Times,serif" font-size="14.00">SetupPage</text>
</g>
<!-- SetupPageModule -->
<g id="node21" class="node">
<title>SetupPageModule</title>
<polygon fill="#8dd3c7" stroke="black" points="2248.15,-187 2245.15,-191 2224.15,-191 2221.15,-187 2129.85,-187 2129.85,-151 2248.15,-151 2248.15,-187"/>
<text text-anchor="middle" x="2189" y="-164.8" font-family="Times,serif" font-size="14.00">SetupPageModule</text>
</g>
<!-- SetupPage&#45;&gt;SetupPageModule -->
<g id="edge14" class="edge">
<title>SetupPage&#45;&gt;SetupPageModule</title>
<path fill="none" stroke="black" d="M2239.39,-122.11C2239.39,-122.11 2239.39,-140.99 2239.39,-140.99"/>
<polygon fill="black" stroke="black" points="2235.89,-140.99 2239.39,-150.99 2242.89,-140.99 2235.89,-140.99"/>
</g>
<!-- SetupPageRoutingModule -->
<g id="node22" class="node">
<title>SetupPageRoutingModule</title>
<polygon fill="#8dd3c7" stroke="black" points="2205.77,-122 2202.77,-126 2181.77,-126 2178.77,-122 2042.23,-122 2042.23,-86 2205.77,-86 2205.77,-122"/>
<text text-anchor="middle" x="2124" y="-99.8" font-family="Times,serif" font-size="14.00">SetupPageRoutingModule</text>
</g>
<!-- SetupPageRoutingModule&#45;&gt;SetupPageModule -->
<g id="edge15" class="edge">
<title>SetupPageRoutingModule&#45;&gt;SetupPageModule</title>
<path fill="none" stroke="black" d="M2167.78,-122.11C2167.78,-122.11 2167.78,-140.99 2167.78,-140.99"/>
<polygon fill="black" stroke="black" points="2164.28,-140.99 2167.78,-150.99 2171.28,-140.99 2164.28,-140.99"/>
</g>
<!-- WelcomePage -->
<g id="node23" class="node">
<title>WelcomePage</title>
<polygon fill="#ffffb3" stroke="black" points="2652.35,-122 2555.65,-122 2555.65,-86 2652.35,-86 2652.35,-122"/>
<text text-anchor="middle" x="2604" y="-99.8" font-family="Times,serif" font-size="14.00">WelcomePage</text>
</g>
<!-- WelcomePageModule -->
<g id="node24" class="node">
<title>WelcomePageModule</title>
<polygon fill="#8dd3c7" stroke="black" points="2584.4,-187 2581.4,-191 2560.4,-191 2557.4,-187 2443.6,-187 2443.6,-151 2584.4,-151 2584.4,-187"/>
<text text-anchor="middle" x="2514" y="-164.8" font-family="Times,serif" font-size="14.00">WelcomePageModule</text>
</g>
<!-- WelcomePage&#45;&gt;WelcomePageModule -->
<g id="edge16" class="edge">
<title>WelcomePage&#45;&gt;WelcomePageModule</title>
<path fill="none" stroke="black" d="M2569.89,-122.11C2569.89,-122.11 2569.89,-140.99 2569.89,-140.99"/>
<polygon fill="black" stroke="black" points="2566.39,-140.99 2569.89,-150.99 2573.39,-140.99 2566.39,-140.99"/>
</g>
<!-- WelcomePageRoutingModule -->
<g id="node25" class="node">
<title>WelcomePageRoutingModule</title>
<polygon fill="#8dd3c7" stroke="black" points="2531.52,-122 2528.52,-126 2507.52,-126 2504.52,-122 2346.48,-122 2346.48,-86 2531.52,-86 2531.52,-122"/>
<text text-anchor="middle" x="2439" y="-99.8" font-family="Times,serif" font-size="14.00">WelcomePageRoutingModule</text>
</g>
<!-- WelcomePageRoutingModule&#45;&gt;WelcomePageModule -->
<g id="edge17" class="edge">
<title>WelcomePageRoutingModule&#45;&gt;WelcomePageModule</title>
<path fill="none" stroke="black" d="M2487.78,-122.11C2487.78,-122.11 2487.78,-140.99 2487.78,-140.99"/>
<polygon fill="black" stroke="black" points="2484.28,-140.99 2487.78,-150.99 2491.28,-140.99 2484.28,-140.99"/>
</g>
</g>
</svg>
