<?xml version="1.0" encoding="UTF-8" standalone="no"?>
<!DOCTYPE svg PUBLIC "-//W3C//DTD SVG 1.1//EN"
 "http://www.w3.org/Graphics/SVG/1.1/DTD/svg11.dtd">
<!-- Generated by graphviz version 2.47.0 (20210316.0004)
 -->
<!-- Title: dependencies Pages: 1 -->
<svg width="504pt" height="211pt"
 viewBox="0.00 0.00 504.00 211.00" xmlns="http://www.w3.org/2000/svg" xmlns:xlink="http://www.w3.org/1999/xlink">
<g id="graph0" class="graph" transform="scale(1 1) rotate(0) translate(4 207)">
<title>dependencies</title>
<polygon fill="white" stroke="transparent" points="-4,4 -4,-207 500,-207 500,4 -4,4"/>
<text text-anchor="start" x="227.01" y="-42.4" font-family="sans-serif" font-weight="bold" font-size="14.00">Legend</text>
<polygon fill="#ffffb3" stroke="transparent" points="14,-10 14,-30 34,-30 34,-10 14,-10"/>
<text text-anchor="start" x="37.63" y="-15.4" font-family="sans-serif" font-size="14.00"> &#160;Declarations</text>
<polygon fill="#8dd3c7" stroke="transparent" points="127,-10 127,-30 147,-30 147,-10 127,-10"/>
<text text-anchor="start" x="150.73" y="-15.4" font-family="sans-serif" font-size="14.00"> &#160;Module</text>
<polygon fill="#80b1d3" stroke="transparent" points="213,-10 213,-30 233,-30 233,-10 213,-10"/>
<text text-anchor="start" x="236.78" y="-15.4" font-family="sans-serif" font-size="14.00"> &#160;Bootstrap</text>
<polygon fill="#fdb462" stroke="transparent" points="310,-10 310,-30 330,-30 330,-10 310,-10"/>
<text text-anchor="start" x="333.67" y="-15.4" font-family="sans-serif" font-size="14.00"> &#160;Providers</text>
<polygon fill="#fb8072" stroke="transparent" points="406,-10 406,-30 426,-30 426,-10 406,-10"/>
<text text-anchor="start" x="429.73" y="-15.4" font-family="sans-serif" font-size="14.00"> &#160;Exports</text>
<g id="clust1" class="cluster">
<title>cluster_Question1PageModule</title>
<polygon fill="none" stroke="black" stroke-dasharray="1,5" points="75,-70 75,-195 421,-195 421,-70 75,-70"/>
</g>
<g id="clust4" class="cluster">
<title>cluster_Question1PageModule_imports</title>
<polygon fill="none" stroke="black" points="207,-78 207,-130 413,-130 413,-78 207,-78"/>
</g>
<g id="clust2" class="cluster">
<title>cluster_Question1PageModule_declarations</title>
<polygon fill="none" stroke="black" points="83,-78 83,-130 199,-130 199,-78 83,-78"/>
</g>
<!-- Question1Page -->
<g id="node1" class="node">
<title>Question1Page</title>
<polygon fill="#ffffb3" stroke="black" points="191.26,-122 90.74,-122 90.74,-86 191.26,-86 191.26,-122"/>
<text text-anchor="middle" x="141" y="-99.8" font-family="Times,serif" font-size="14.00">Question1Page</text>
</g>
<!-- Question1PageModule -->
<g id="node2" class="node">
<title>Question1PageModule</title>
<polygon fill="#8dd3c7" stroke="black" points="304.31,-187 301.31,-191 280.31,-191 277.31,-187 159.69,-187 159.69,-151 304.31,-151 304.31,-187"/>
<text text-anchor="middle" x="232" y="-164.8" font-family="Times,serif" font-size="14.00">Question1PageModule</text>
</g>
<!-- Question1Page&#45;&gt;Question1PageModule -->
<g id="edge1" class="edge">
<title>Question1Page&#45;&gt;Question1PageModule</title>
<path fill="none" stroke="black" d="M175.61,-122.11C175.61,-122.11 175.61,-140.99 175.61,-140.99"/>
<polygon fill="black" stroke="black" points="172.11,-140.99 175.61,-150.99 179.11,-140.99 172.11,-140.99"/>
</g>
<!-- Question1PageRoutingModule -->
<g id="node3" class="node">
<title>Question1PageRoutingModule</title>
<polygon fill="#8dd3c7" stroke="black" points="404.93,-122 401.93,-126 380.93,-126 377.93,-122 215.07,-122 215.07,-86 404.93,-86 404.93,-122"/>
<text text-anchor="middle" x="310" y="-99.8" font-family="Times,serif" font-size="14.00">Question1PageRoutingModule</text>
</g>
<!-- Question1PageRoutingModule&#45;&gt;Question1PageModule -->
<g id="edge2" class="edge">
<title>Question1PageRoutingModule&#45;&gt;Question1PageModule</title>
<path fill="none" stroke="black" d="M259.72,-122.11C259.72,-122.11 259.72,-140.99 259.72,-140.99"/>
<polygon fill="black" stroke="black" points="256.22,-140.99 259.72,-150.99 263.22,-140.99 256.22,-140.99"/>
</g>
</g>
</svg>
