<?xml version="1.0" encoding="UTF-8" standalone="no"?>
<!DOCTYPE svg PUBLIC "-//W3C//DTD SVG 1.1//EN"
 "http://www.w3.org/Graphics/SVG/1.1/DTD/svg11.dtd">
<!-- Generated by graphviz version 2.47.0 (20210316.0004)
 -->
<!-- Title: dependencies Pages: 1 -->
<svg width="504pt" height="211pt"
 viewBox="0.00 0.00 504.00 211.00" xmlns="http://www.w3.org/2000/svg" xmlns:xlink="http://www.w3.org/1999/xlink">
<g id="graph0" class="graph" transform="scale(1 1) rotate(0) translate(4 207)">
<title>dependencies</title>
<polygon fill="white" stroke="transparent" points="-4,4 -4,-207 500,-207 500,4 -4,4"/>
<text text-anchor="start" x="227.01" y="-42.4" font-family="sans-serif" font-weight="bold" font-size="14.00">Legend</text>
<polygon fill="#ffffb3" stroke="transparent" points="14,-10 14,-30 34,-30 34,-10 14,-10"/>
<text text-anchor="start" x="37.63" y="-15.4" font-family="sans-serif" font-size="14.00"> &#160;Declarations</text>
<polygon fill="#8dd3c7" stroke="transparent" points="127,-10 127,-30 147,-30 147,-10 127,-10"/>
<text text-anchor="start" x="150.73" y="-15.4" font-family="sans-serif" font-size="14.00"> &#160;Module</text>
<polygon fill="#80b1d3" stroke="transparent" points="213,-10 213,-30 233,-30 233,-10 213,-10"/>
<text text-anchor="start" x="236.78" y="-15.4" font-family="sans-serif" font-size="14.00"> &#160;Bootstrap</text>
<polygon fill="#fdb462" stroke="transparent" points="310,-10 310,-30 330,-30 330,-10 310,-10"/>
<text text-anchor="start" x="333.67" y="-15.4" font-family="sans-serif" font-size="14.00"> &#160;Providers</text>
<polygon fill="#fb8072" stroke="transparent" points="406,-10 406,-30 426,-30 426,-10 406,-10"/>
<text text-anchor="start" x="429.73" y="-15.4" font-family="sans-serif" font-size="14.00"> &#160;Exports</text>
<g id="clust1" class="cluster">
<title>cluster_LastquestionPageModule</title>
<polygon fill="none" stroke="black" stroke-dasharray="1,5" points="61,-70 61,-195 435,-195 435,-70 61,-70"/>
</g>
<g id="clust4" class="cluster">
<title>cluster_LastquestionPageModule_imports</title>
<polygon fill="none" stroke="black" points="207,-78 207,-130 427,-130 427,-78 207,-78"/>
</g>
<g id="clust2" class="cluster">
<title>cluster_LastquestionPageModule_declarations</title>
<polygon fill="none" stroke="black" points="69,-78 69,-130 199,-130 199,-78 69,-78"/>
</g>
<!-- LastquestionPage -->
<g id="node1" class="node">
<title>LastquestionPage</title>
<polygon fill="#ffffb3" stroke="black" points="191.25,-122 76.75,-122 76.75,-86 191.25,-86 191.25,-122"/>
<text text-anchor="middle" x="134" y="-99.8" font-family="Times,serif" font-size="14.00">LastquestionPage</text>
</g>
<!-- LastquestionPageModule -->
<g id="node2" class="node">
<title>LastquestionPageModule</title>
<polygon fill="#8dd3c7" stroke="black" points="311.3,-187 308.3,-191 287.3,-191 284.3,-187 152.7,-187 152.7,-151 311.3,-151 311.3,-187"/>
<text text-anchor="middle" x="232" y="-164.8" font-family="Times,serif" font-size="14.00">LastquestionPageModule</text>
</g>
<!-- LastquestionPage&#45;&gt;LastquestionPageModule -->
<g id="edge1" class="edge">
<title>LastquestionPage&#45;&gt;LastquestionPageModule</title>
<path fill="none" stroke="black" d="M172.11,-122.11C172.11,-122.11 172.11,-140.99 172.11,-140.99"/>
<polygon fill="black" stroke="black" points="168.61,-140.99 172.11,-150.99 175.61,-140.99 168.61,-140.99"/>
</g>
<!-- LastquestionPageRoutingModule -->
<g id="node3" class="node">
<title>LastquestionPageRoutingModule</title>
<polygon fill="#8dd3c7" stroke="black" points="418.92,-122 415.92,-126 394.92,-126 391.92,-122 215.08,-122 215.08,-86 418.92,-86 418.92,-122"/>
<text text-anchor="middle" x="317" y="-99.8" font-family="Times,serif" font-size="14.00">LastquestionPageRoutingModule</text>
</g>
<!-- LastquestionPageRoutingModule&#45;&gt;LastquestionPageModule -->
<g id="edge2" class="edge">
<title>LastquestionPageRoutingModule&#45;&gt;LastquestionPageModule</title>
<path fill="none" stroke="black" d="M263.22,-122.11C263.22,-122.11 263.22,-140.99 263.22,-140.99"/>
<polygon fill="black" stroke="black" points="259.72,-140.99 263.22,-150.99 266.72,-140.99 259.72,-140.99"/>
</g>
</g>
</svg>
